<!DOCTYPE svg PUBLIC "-//W3C//DTD SVG 20010904//EN" "http://www.w3.org/TR/2001/REC-SVG-20010904/DTD/svg10.dtd">
<svg version="1.0" xmlns="http://www.w3.org/2000/svg" width="2000px" height="2000px" viewBox="0 0 12000 12000" preserveAspectRatio="xMidYMid meet">
<g id="layer101" fill="#2d2c2b" stroke="none">
 <path d="M1587 8974 c-262 -63 -441 -290 -462 -585 -23 -313 113 -563 369 -679 102 -46 175 -60 316 -60 118 0 137 3 222 31 113 38 228 111 228 145 0 14 -94 141 -119 162 -24 19 -81 8 -135 -26 -91 -58 -250 -68 -351 -22 -56 26 -135 101 -163 156 -88 174 -58 416 67 541 71 70 119 88 241 88 112 -1 139 -9 219 -69 57 -43 80 -36 161 46 38 39 70 74 70 77 -1 16 -71 83 -125 118 -106 70 -200 93 -368 92 -62 0 -138 -7 -170 -15z"/>
 <path d="M8665 8975 c-134 -34 -287 -119 -293 -162 -2 -13 1 -23 7 -23 6 0 11 -6 12 -12 0 -7 19 -40 42 -73 55 -78 86 -89 154 -51 129 72 155 81 233 81 122 0 166 -30 177 -123 5 -42 2 -52 -22 -80 -36 -43 -64 -56 -203 -98 -190 -58 -274 -115 -325 -222 -19 -40 -22 -64 -22 -167 0 -117 1 -122 32 -178 86 -152 213 -217 424 -217 98 0 129 4 194 25 75 25 134 55 184 93 l23 19 -42 79 c-69 130 -86 136 -214 74 -71 -35 -92 -40 -150 -40 -79 0 -118 17 -146 63 -55 89 9 158 195 211 71 21 79 24 168 66 124 58 192 151 203 282 7 72 -13 174 -47 240 -50 99 -172 190 -289 217 -61 14 -233 12 -295 -4z"/>
 <path d="M2760 8320 l0 -660 160 0 160 0 0 660 0 660 -160 0 -160 0 0 -660z"/>
 <path d="M3680 8320 l0 -660 108 0 c103 0 109 1 137 28 17 15 39 39 50 53 58 77 149 195 154 199 4 3 31 37 61 75 30 39 57 72 60 75 3 3 37 46 75 95 38 50 72 92 75 95 4 3 29 35 57 72 28 37 61 77 72 89 l21 23 0 -402 0 -402 140 0 140 0 0 660 0 660 -106 0 c-126 0 -140 -6 -204 -92 -25 -33 -52 -67 -60 -76 -9 -9 -47 -57 -85 -107 -38 -49 -72 -92 -75 -95 -3 -3 -30 -36 -60 -75 -69 -88 -79 -101 -110 -139 -14 -17 -48 -60 -75 -96 -27 -36 -52 -67 -55 -70 -3 -3 -16 -18 -28 -34 l-22 -29 0 407 0 406 -135 0 -135 0 0 -660z"/>
 <path d="M5400 8320 l0 -660 425 0 425 0 0 120 0 120 -270 0 -270 0 0 150 0 150 205 0 205 0 0 120 0 120 -205 0 -205 0 0 150 0 150 270 0 270 0 0 120 0 120 -425 0 -425 0 0 -660z"/>
 <path d="M6660 8976 c0 -5 28 -75 40 -101 6 -11 32 -81 60 -155 28 -74 57 -149 65 -167 8 -17 15 -37 15 -45 0 -8 4 -18 8 -23 5 -6 17 -32 27 -60 9 -27 24 -63 31 -80 7 -16 43 -109 79 -205 36 -96 70 -184 75 -195 5 -11 26 -63 45 -115 19 -52 39 -104 44 -115 5 -11 12 -28 15 -38 5 -16 20 -17 167 -15 l162 3 39 100 c21 55 43 109 48 120 5 11 22 56 39 100 17 44 56 145 87 225 31 80 69 179 84 220 42 113 139 362 150 385 12 24 60 153 60 160 0 3 -66 5 -146 5 l-146 0 -26 -27 c-18 -19 -40 -68 -66 -145 l-39 -118 -246 0 -246 0 -35 111 c-25 81 -44 121 -66 145 l-31 34 -147 0 c-80 0 -146 -2 -146 -4z m834 -533 c-4 -16 -10 -32 -14 -38 -4 -5 -11 -26 -15 -45 -4 -19 -11 -41 -16 -50 -10 -16 -83 -228 -104 -300 -7 -25 -14 -43 -14 -40 -1 3 -39 117 -86 253 l-84 247 170 0 169 0 -6 -27z"/>
 <path d="M10140 8732 l0 -248 -30 -47 c-16 -26 -30 -50 -30 -53 0 -4 -29 -55 -65 -114 -36 -59 -65 -113 -65 -119 0 -6 -4 -11 -10 -11 -5 0 -10 -4 -10 -10 0 -5 -37 -71 -81 -147 -45 -76 -94 -160 -109 -188 -15 -27 -37 -66 -49 -85 -11 -19 -21 -38 -21 -42 0 -12 285 -9 316 2 33 13 49 31 73 85 11 22 48 101 84 175 35 74 86 180 112 235 28 57 50 94 53 85 6 -18 62 -139 139 -300 30 -63 69 -144 86 -180 35 -74 45 -86 82 -100 27 -10 315 -14 315 -5 0 7 -74 138 -157 276 -34 59 -63 109 -63 112 0 2 -31 56 -68 118 -38 63 -94 160 -125 215 l-57 102 0 246 0 246 -160 0 -160 0 0 -248z"/>
 <path d="M5915 6324 c-209 -18 -460 -68 -630 -125 -112 -38 -102 -34 -268 -113 -255 -122 -485 -294 -670 -501 -69 -78 -91 -104 -156 -190 -17 -22 -34 -44 -39 -50 -4 -5 -19 -28 -32 -50 -13 -22 -27 -42 -30 -45 -9 -7 -99 -169 -149 -270 -95 -189 -186 -447 -239 -680 -44 -192 -47 -207 -79 -480 -44 -376 -8 -941 83 -1280 40 -149 111 -369 141 -440 57 -131 201 -412 216 -418 4 -2 7 -8 7 -14 0 -8 95 -154 110 -168 3 -3 30 -36 60 -75 101 -130 279 -309 372 -373 13 -9 29 -22 37 -30 22 -21 189 -132 200 -132 5 0 11 -4 13 -8 5 -12 264 -136 343 -165 65 -23 143 -48 240 -76 96 -28 280 -58 435 -72 145 -13 501 -7 605 11 120 20 279 51 310 60 80 24 255 84 295 102 25 11 69 31 98 45 107 49 283 164 387 253 42 36 186 179 215 215 74 89 160 210 160 224 0 5 3 11 8 13 33 15 194 369 237 523 10 33 23 80 31 105 21 70 40 192 63 402 15 134 14 165 -5 172 -9 3 -235 6 -504 6 l-488 0 -7 -77 c-10 -126 -49 -304 -76 -355 -5 -10 -9 -22 -9 -28 0 -10 -71 -161 -80 -170 -3 -3 -11 -17 -19 -32 -40 -78 -190 -247 -292 -329 -46 -37 -137 -99 -145 -99 -2 0 -21 -10 -42 -23 -20 -13 -57 -31 -82 -40 -25 -9 -58 -22 -75 -28 -138 -56 -375 -74 -556 -44 -176 29 -388 111 -513 198 -77 54 -205 168 -267 239 -218 247 -397 655 -446 1018 -3 25 -10 50 -14 56 -30 38 -45 615 -20 789 24 176 59 354 84 440 33 111 70 221 78 229 5 6 9 16 9 24 0 19 114 248 153 307 110 167 210 282 337 387 123 101 336 208 475 239 293 64 584 49 860 -43 89 -30 275 -114 285 -128 3 -4 15 -10 28 -14 12 -4 22 -12 22 -17 0 -5 5 -9 11 -9 19 0 163 -116 243 -196 98 -97 199 -228 266 -342 49 -84 53 -85 139 -32 26 17 51 30 55 30 3 0 23 10 44 23 37 24 100 59 222 125 36 19 70 38 75 42 9 7 115 65 180 100 105 56 165 93 165 104 0 18 -90 171 -160 271 -157 224 -366 427 -598 579 -86 57 -275 166 -286 166 -3 0 -33 13 -68 29 -320 148 -689 227 -1093 235 -115 2 -232 2 -260 0z"/>
 </g>
<g id="layer102" fill="#732628" stroke="none">
 <path d="M5915 6324 c-209 -18 -460 -68 -630 -125 -112 -38 -102 -34 -268 -113 -255 -122 -485 -294 -670 -501 -69 -78 -91 -104 -156 -190 -17 -22 -34 -44 -39 -50 -4 -5 -19 -28 -32 -50 -13 -22 -27 -42 -30 -45 -9 -7 -99 -169 -149 -270 -114 -227 -199 -485 -270 -820 -40 -186 -65 -471 -65 -735 -1 -443 50 -764 186 -1170 37 -111 54 -153 95 -244 l15 -33 28 28 c16 16 135 171 265 344 131 173 289 383 352 467 l115 152 -13 108 c-16 132 -16 586 0 698 24 174 58 353 84 440 33 111 70 221 78 229 5 6 9 16 9 24 0 19 114 248 153 307 204 309 412 483 712 596 194 72 508 87 787 37 11 -2 44 33 100 107 236 309 488 646 488 650 0 9 -48 25 -177 61 -233 64 -439 93 -708 98 -115 2 -232 2 -260 0z"/>
 <path d="M7970 5605 c19 -19 36 -35 39 -35 3 0 -10 16 -29 35 -19 19 -36 35 -39 35 -3 0 10 -16 29 -35z"/>
 <path d="M8075 5485 c67 -75 86 -87 29 -18 -46 56 -72 83 -80 83 -3 0 20 -29 51 -65z"/>
 <path d="M8199 5327 c58 -83 121 -186 160 -262 11 -22 20 -33 21 -25 0 31 -212 370 -232 370 -4 0 19 -37 51 -83z"/>
 <path d="M6793 5300 c49 -21 95 -44 103 -51 8 -6 17 -9 21 -6 7 8 -174 97 -196 97 -9 0 24 -18 72 -40z"/>
 <path d="M6980 5201 c0 -6 5 -11 11 -11 6 0 27 -12 47 -27 24 -18 31 -21 20 -8 -22 27 -78 59 -78 46z"/>
 <path d="M7140 5083 c0 -5 13 -17 28 -27 l27 -19 -24 26 c-26 28 -31 32 -31 20z"/>
 </g>
<g id="layer103" fill="#ec1a23" stroke="none">
 <path d="M5915 6324 c-209 -18 -460 -68 -630 -125 -112 -38 -102 -34 -268 -113 -255 -122 -485 -294 -670 -501 -69 -78 -91 -104 -156 -190 -17 -22 -34 -44 -39 -50 -4 -5 -19 -28 -32 -50 -13 -22 -27 -42 -30 -45 -9 -7 -99 -169 -149 -270 -95 -189 -186 -447 -239 -680 -44 -192 -47 -207 -79 -480 -44 -376 -8 -941 83 -1280 41 -154 111 -370 144 -445 9 -22 23 -55 31 -73 8 -17 16 -32 19 -32 14 0 85 88 327 410 143 190 299 397 347 460 86 113 87 116 81 160 -26 202 -28 580 -4 765 19 148 56 342 82 430 33 111 70 221 78 229 5 6 9 16 9 24 0 19 114 248 153 307 204 309 412 483 712 596 107 40 283 68 435 68 98 0 303 -18 348 -30 9 -3 128 147 303 379 l290 382 -28 11 c-105 41 -306 87 -518 119 -127 20 -485 33 -600 24z"/>
 </g>

</svg>