<svg id="Capa_1" enable-background="new 0 0 512 512" height="512" viewBox="0 0 512 512" width="512" xmlns="http://www.w3.org/2000/svg"><g><path d="m474.5 7.502-90 143.498 90 143.5h30v-287z" fill="#353535"/><path d="m474.5 294.5h-467v-45l60-98.5-60-98.5v-45h467v45l-60 98.5 60 98.5z" fill="#4f4f4f"/><path d="m474.5 52.502-90 98.498 90 98.5h30v-197z" fill="#ffe2a8"/><path d="m7.5 52.5h467v197h-467z" fill="#fff0d3"/><path d="m321.938 385.727c.033-.406.062-.813.062-1.227 0-3.624-1.285-6.948-3.425-9.541l-27.711-33.913c-8.258-10.097-20.807-16.546-34.864-16.546l36 90h24c8.284 0 15-6.716 15-15 0-6.174-3.733-11.472-9.062-13.773z" fill="#60312c"/><path d="m301 399.5c0-6.174-2.24-11.472-5.437-13.773.02-.406.037-.813.037-1.227 0-3.624-.771-6.948-2.055-9.541l-16.627-33.913c-4.955-10.097-12.484-16.546-20.918-16.546-14.057 0-26.606 6.449-34.858 16.546-.006 0-27.717 33.913-27.717 33.913-2.14 2.593-3.425 5.917-3.425 9.541 0 .414.029.821.062 1.227-5.33 2.301-9.062 7.599-9.062 13.773 0 8.284 6.716 15 15 15h96c4.97 0 9-6.716 9-15z" fill="#85453d"/><path d="m296 444.5h-30l20 60h30v-40c0-11.046-8.954-20-20-20z" fill="#eb1b00"/><path d="m266 444.5h-50c-11.046 0-20 8.954-20 20v40h90v-40c0-11.046-8.954-20-20-20z" fill="#ff4128"/><path d="m146 444.5h-30l20 60h30v-40c0-11.046-8.954-20-20-20z" fill="#eb1b00"/><path d="m116 444.5h-50c-11.046 0-20 8.954-20 20v40h90v-40c0-11.046-8.954-20-20-20z" fill="#ff4128"/><path d="m106 324.5v90c24.853 0 45-20.147 45-45s-20.147-45-45-45z" fill="#c27749"/><path d="m121 369.5c0-24.853-6.716-45-15-45-24.853 0-45 20.147-45 45s20.147 45 45 45c8.284 0 15-20.147 15-45z" fill="#e18f4e"/><path d="m446 444.5h-30l20 60h30v-40c0-11.046-8.954-20-20-20z" fill="#eb1b00"/><path d="m416 444.5h-50c-11.046 0-20 8.954-20 20v40h90v-40c0-11.046-8.954-20-20-20z" fill="#ff4128"/><path d="m406 324.5v90c24.853 0 45-20.147 45-45s-20.147-45-45-45z" fill="#85453d"/><path d="m421 369.5c0-24.853-6.716-45-15-45-24.853 0-45 20.147-45 45s20.147 45 45 45c8.284 0 15-20.147 15-45z" fill="#a45e43"/><path d="m256 82.5v137c37.832 0 68.5-30.669 68.5-68.5 0-37.832-30.669-68.5-68.5-68.5z" fill="#eb1b00"/><path d="m294.5 151c0-37.832-17.237-68.5-38.5-68.5-37.832 0-68.5 30.668-68.5 68.5 0 37.831 30.668 68.5 68.5 68.5 21.263 0 38.5-30.669 38.5-68.5z" fill="#ff4128"/><path d="m294.5 151-57.75-33.342v66.684z" fill="#ffcb63"/><path d="m504.5 0h-497c-4.143 0-7.5 3.357-7.5 7.5v287c0 4.143 3.357 7.5 7.5 7.5h497c4.143 0 7.5-3.357 7.5-7.5v-287c0-4.143-3.357-7.5-7.5-7.5zm-489.5 60h482v182h-482zm482-45v30h-482v-30zm-482 272v-30h482v30z"/><path d="m296 437h-80c-15.163 0-27.5 12.337-27.5 27.5v40c0 4.143 3.357 7.5 7.5 7.5h120c4.143 0 7.5-3.357 7.5-7.5v-40c0-15.163-12.337-27.5-27.5-27.5zm12.5 60h-105v-32.5c0-6.893 5.607-12.5 12.5-12.5h80c6.893 0 12.5 5.607 12.5 12.5z"/><path d="m106 422c28.948 0 52.5-23.552 52.5-52.5s-23.552-52.5-52.5-52.5-52.5 23.552-52.5 52.5 23.552 52.5 52.5 52.5zm0-90c20.678 0 37.5 16.822 37.5 37.5s-16.822 37.5-37.5 37.5-37.5-16.822-37.5-37.5 16.822-37.5 37.5-37.5z"/><path d="m146 437h-80c-15.163 0-27.5 12.337-27.5 27.5v40c0 4.143 3.357 7.5 7.5 7.5h120c4.143 0 7.5-3.357 7.5-7.5v-40c0-15.163-12.337-27.5-27.5-27.5zm12.5 60h-105v-32.5c0-6.893 5.607-12.5 12.5-12.5h80c6.893 0 12.5 5.607 12.5 12.5z"/><path d="m406 422c28.948 0 52.5-23.552 52.5-52.5s-23.552-52.5-52.5-52.5-52.5 23.552-52.5 52.5 23.552 52.5 52.5 52.5zm0-90c20.678 0 37.5 16.822 37.5 37.5s-16.822 37.5-37.5 37.5-37.5-16.822-37.5-37.5 16.822-37.5 37.5-37.5z"/><path d="m446 437h-80c-15.163 0-27.5 12.337-27.5 27.5v40c0 4.143 3.357 7.5 7.5 7.5h120c4.143 0 7.5-3.357 7.5-7.5v-40c0-15.163-12.337-27.5-27.5-27.5zm12.5 60h-105v-32.5c0-6.893 5.607-12.5 12.5-12.5h80c6.893 0 12.5 5.607 12.5 12.5z"/><path d="m329.275 381.334c-.581-4.078-2.272-7.946-4.894-11.12l-27.713-33.916c-10.028-12.264-24.852-19.298-40.668-19.298-15.819 0-30.642 7.034-40.665 19.3-.386.471-27.694 33.886-27.694 33.886-2.639 3.197-4.334 7.07-4.916 11.147-5.722 4.178-9.225 10.885-9.225 18.167 0 12.406 10.094 22.5 22.5 22.5h120c12.406 0 22.5-10.094 22.5-22.5 0-7.282-3.503-13.988-9.225-18.166zm-13.275 25.666h-120c-4.136 0-7.5-3.364-7.5-7.5 0-2.995 1.78-5.698 4.534-6.888 2.947-1.272 4.758-4.279 4.504-7.479-.017-.21-.038-.42-.038-.634 0-2.229.93-3.822 1.732-4.796 9.305-11.387 26.993-33.032 27.673-33.858.016-.018.03-.036.045-.054 7.163-8.764 17.751-13.791 29.05-13.791 11.298 0 21.889 5.027 29.056 13.791l27.735 33.943c.779.944 1.709 2.538 1.709 4.766 0 .208-.021.411-.037.615-.263 3.206 1.549 6.223 4.502 7.497 2.755 1.189 4.535 3.893 4.535 6.888 0 4.136-3.364 7.5-7.5 7.5z"/><path d="m256 75c-41.906 0-76 34.094-76 76s34.094 76 76 76 76-34.094 76-76-34.094-76-76-76zm0 137c-33.636 0-61-27.364-61-61s27.364-61 61-61 61 27.364 61 61-27.364 61-61 61z"/><path d="m298.25 144.505-57.75-33.342c-2.32-1.34-5.18-1.34-7.5 0s-3.75 3.815-3.75 6.495v66.684c0 2.68 1.43 5.155 3.75 6.495 1.16.67 2.455 1.005 3.75 1.005s2.59-.335 3.75-1.005l57.75-33.342c2.32-1.34 3.75-3.815 3.75-6.495s-1.43-5.155-3.75-6.495zm-54 26.847v-40.703l35.25 20.351z"/></g></svg>