<?xml version="1.0" encoding="UTF-8"?>
<svg width="17px" height="16px" viewBox="0 0 17 16" version="1.1" xmlns="http://www.w3.org/2000/svg" xmlns:xlink="http://www.w3.org/1999/xlink">
    <!-- Generator: sketchtool 52.6 (67491) - http://www.bohemiancoding.com/sketch -->
    <title>4B894C61-2FA9-4846-BACA-0A354B6AB8F6</title>
    <desc>Created with sketchtool.</desc>
    <g id="ðŸ¿-Movie-search" stroke="none" stroke-width="1" fill="none" fill-rule="evenodd">
        <g id="3.Details" transform="translate(-276.000000, -416.000000)" fill="#FFFFFF" fill-rule="nonzero">
            <g id="section__cotation-[16h]" transform="translate(130.000000, 404.000000)">
                <g id="cotation" transform="translate(134.000000, 0.000000)">
                    <g id="cotation-[8h]">
                        <g id="site__logo">
                            <g id="Rotten_Tomatoes_rotten" transform="translate(12.000000, 12.000000)">
                                <g id="icon/cotation">
                                    <path d="M5.62927407,0.173274074 C8.72545185,-0.600817778 9.08017778,1.80645926 8.31395556,3.77765926 C7.53865481,6.63514074 10.4585481,6.58204444 10.675437,4.97078519 C11.1026726,2.78862222 12.9739852,1.80693333 14.4289185,3.03194074 C15.9220148,4.47016296 15.2672593,7.36746667 12.3160889,7.08373333 C10.416237,6.90065778 9.99881481,9.40491852 12.4155188,9.59431111 C16.2351336,9.82122667 17.4514892,12.2215111 16.0944521,13.8449778 C14.198867,15.6405333 11.6272521,13.3188859 10.7003188,11.5332741 C9.89440474,10.4301985 8.64745956,11.5463538 9.10944474,12.3038578 C10.6481707,14.6108207 9.45586252,16.0050726 7.81688178,15.9330133 C6.2324077,15.8322726 5.33273363,14.8592356 6.25077807,12.4781985 C6.71264474,10.9988504 5.23211141,10.6545541 4.28704474,11.8322726 C2.89942993,14.1564207 0.865889185,13.4536059 0.260141037,12.3288652 C-0.124167111,11.425517 -0.0860515556,9.26551704 3.11868919,9.52033185 C5.09652622,10.010643 4.51436326,8.03162074 3.04414104,7.90456889 C1.94831881,7.85206519 -0.570910815,7.03890963 0.334689185,4.99624296 C1.20473363,3.6857837 3.29267437,3.60139852 4.28704474,5.74196148 C4.64699733,6.24360296 5.27802548,7.05064296 6.42476326,6.3385363 C6.84076326,5.72248889 6.56826548,4.69101037 5.38074548,3.95216593 C3.76805926,3.0112 3.92059259,0.964622222 5.62927407,0.173274074 Z" id="path3575"></path>
                                </g>
                            </g>
                        </g>
                    </g>
                </g>
            </g>
        </g>
    </g>
</svg>